<svg width="115" height="19" viewBox="0 0 115 19" fill="none" xmlns="http://www.w3.org/2000/svg">
<path d="M12.3377 1.93652C12.5536 1.30523 13.4464 1.30523 13.6623 1.93653L15.0832 6.09087C15.1801 6.37406 15.4462 6.56434 15.7455 6.56434H20.2641C20.9509 6.56434 21.2269 7.45032 20.6617 7.84044L17.0689 10.3202C16.8109 10.4983 16.7028 10.8262 16.8042 11.1229L18.191 15.1773C18.4094 15.816 17.6865 16.3634 17.131 15.98L13.3976 13.4031C13.1583 13.2379 12.8417 13.2379 12.6024 13.4031L8.869 15.98C8.3135 16.3634 7.59061 15.816 7.80904 15.1773L9.19575 11.1229C9.29721 10.8262 9.18906 10.4983 8.93105 10.3202L5.33827 7.84044C4.77307 7.45032 5.04914 6.56434 5.73591 6.56434H10.2545C10.5538 6.56434 10.8199 6.37406 10.9168 6.09087L12.3377 1.93652Z" fill="#FFC700"/>
<path d="M35.3377 1.93652C35.5536 1.30523 36.4464 1.30523 36.6623 1.93653L38.0832 6.09087C38.1801 6.37406 38.4462 6.56434 38.7455 6.56434H43.2641C43.9509 6.56434 44.2269 7.45032 43.6617 7.84044L40.0689 10.3202C39.8109 10.4983 39.7028 10.8262 39.8042 11.1229L41.191 15.1773C41.4094 15.816 40.6865 16.3634 40.131 15.98L36.3976 13.4031C36.1583 13.2379 35.8417 13.2379 35.6024 13.4031L31.869 15.98C31.3135 16.3634 30.5906 15.816 30.809 15.1773L32.1958 11.1229C32.2972 10.8262 32.1891 10.4983 31.9311 10.3202L28.3383 7.84044C27.7731 7.45032 28.0491 6.56434 28.7359 6.56434H33.2545C33.5538 6.56434 33.8199 6.37406 33.9168 6.09087L35.3377 1.93652Z" fill="#FFC700"/>
<path d="M58.3377 1.93652C58.5536 1.30523 59.4464 1.30523 59.6623 1.93653L61.0832 6.09087C61.1801 6.37406 61.4462 6.56434 61.7455 6.56434H66.2641C66.9509 6.56434 67.2269 7.45032 66.6617 7.84044L63.0689 10.3202C62.8109 10.4983 62.7028 10.8262 62.8042 11.1229L64.191 15.1773C64.4094 15.816 63.6865 16.3634 63.131 15.98L59.3976 13.4031C59.1583 13.2379 58.8417 13.2379 58.6024 13.4031L54.869 15.98C54.3135 16.3634 53.5906 15.816 53.809 15.1773L55.1958 11.1229C55.2972 10.8262 55.1891 10.4983 54.9311 10.3202L51.3383 7.84044C50.7731 7.45032 51.0491 6.56434 51.7359 6.56434H56.2545C56.5538 6.56434 56.8199 6.37406 56.9168 6.09087L58.3377 1.93652Z" fill="#FFC700"/>
<path d="M81.3377 1.93652C81.5536 1.30523 82.4464 1.30523 82.6623 1.93653L84.0832 6.09087C84.1801 6.37406 84.4462 6.56434 84.7455 6.56434H89.2641C89.9509 6.56434 90.2269 7.45032 89.6617 7.84044L86.0689 10.3202C85.8109 10.4983 85.7028 10.8262 85.8042 11.1229L87.191 15.1773C87.4094 15.816 86.6865 16.3634 86.131 15.98L82.3976 13.4031C82.1583 13.2379 81.8417 13.2379 81.6024 13.4031L77.869 15.98C77.3135 16.3634 76.5906 15.816 76.809 15.1773L78.1958 11.1229C78.2972 10.8262 78.1891 10.4983 77.9311 10.3202L74.3383 7.84044C73.7731 7.45032 74.0491 6.56434 74.7359 6.56434H79.2545C79.5538 6.56434 79.8199 6.37406 79.9168 6.09087L81.3377 1.93652Z" fill="#FFC700"/>
<path d="M101.338 1.93652C101.554 1.30523 102.446 1.30523 102.662 1.93653L104.083 6.09087C104.18 6.37406 104.446 6.56434 104.746 6.56434H109.264C109.951 6.56434 110.227 7.45032 109.662 7.84044L106.069 10.3202C105.811 10.4983 105.703 10.8262 105.804 11.1229L107.191 15.1773C107.409 15.816 106.686 16.3634 106.131 15.98L102.398 13.4031C102.158 13.2379 101.842 13.2379 101.602 13.4031L97.869 15.98C97.3135 16.3634 96.5906 15.816 96.809 15.1773L98.1958 11.1229C98.2972 10.8262 98.1891 10.4983 97.9311 10.3202L94.3383 7.84044C93.7731 7.45032 94.0491 6.56434 94.7359 6.56434H99.2545C99.5538 6.56434 99.8199 6.37406 99.9168 6.09087L101.338 1.93652Z" fill="#FFC700"/>
</svg>
