<svg width="25" height="24" viewBox="0 0 25 24" fill="none" xmlns="http://www.w3.org/2000/svg">
<g clip-path="url(#clip0_422_438)">
<path d="M24.6797 12C24.6797 5.3726 19.3071 1.52588e-05 12.6797 1.52588e-05C6.05228 1.52588e-05 0.679688 5.3726 0.679688 12C0.679688 17.6278 4.554 22.3499 9.78077 23.6466V15.667H7.30627V12H9.78077V10.4199C9.78077 6.33548 11.6292 4.44236 15.6391 4.44236C16.3993 4.44236 17.7111 4.5914 18.2477 4.74049V8.06468C17.9645 8.03487 17.4726 8.01995 16.8614 8.01995C14.8937 8.01995 14.1335 8.76529 14.1335 10.7031V12H18.0531L17.3797 15.667H14.1335V23.9121C20.0752 23.1945 24.6797 18.1353 24.6797 12Z" fill="#0866FF"/>
<path d="M17.3797 15.667L18.0531 12H14.1335V10.7031C14.1335 8.76524 14.8937 8.01995 16.8614 8.01995C17.4726 8.01995 17.9645 8.03483 18.2477 8.06464V4.7405C17.7111 4.59141 16.3993 4.44232 15.6391 4.44232C11.6292 4.44232 9.78077 6.33549 9.78077 10.4199V12H7.30627V15.667H9.78077V23.6466C10.7092 23.8769 11.68 24 12.6797 24C13.1719 24 13.6569 23.9697 14.1335 23.9121V15.667H17.3797Z" fill="white"/>
</g>
<defs>
<clipPath id="clip0_422_438">
<rect width="24" height="24" fill="white" transform="translate(0.679688)"/>
</clipPath>
</defs>
</svg>
