<svg width="25" height="24" viewBox="0 0 25 24" fill="none" xmlns="http://www.w3.org/2000/svg">
<g clip-path="url(#clip0_422_437)">
<path d="M12.6797 24C19.3071 24 24.6797 18.6274 24.6797 12C24.6797 5.37258 19.3071 0 12.6797 0C6.05227 0 0.679688 5.37258 0.679688 12C0.679688 18.6274 6.05227 24 12.6797 24Z" fill="url(#paint0_linear_422_437)"/>
<path fill-rule="evenodd" clip-rule="evenodd" d="M6.11158 11.8733C9.60982 10.3492 11.9425 9.3444 13.1097 8.85893C16.4422 7.47282 17.1347 7.23203 17.5861 7.22408C17.6853 7.22234 17.9073 7.24694 18.0511 7.3636C18.1725 7.46211 18.2059 7.59518 18.2218 7.68857C18.2378 7.78197 18.2577 7.99473 18.2419 8.16098C18.0613 10.0585 17.2799 14.6632 16.8824 16.7884C16.7141 17.6876 16.3829 17.9891 16.0623 18.0186C15.3654 18.0828 14.8362 17.5581 14.1613 17.1157C13.1051 16.4234 12.5085 15.9924 11.4833 15.3168C10.2985 14.536 11.0666 14.1069 11.7418 13.4056C11.9185 13.2221 14.9889 10.4294 15.0483 10.176C15.0557 10.1443 15.0626 10.0262 14.9925 9.96385C14.9223 9.90148 14.8187 9.92281 14.744 9.93977C14.6381 9.96381 12.9508 11.079 9.68233 13.2853C9.20341 13.6142 8.76963 13.7744 8.38097 13.766C7.95251 13.7568 7.12832 13.5238 6.51562 13.3246C5.76412 13.0803 5.16685 12.9512 5.21886 12.5363C5.24595 12.3202 5.54352 12.0992 6.11158 11.8733Z" fill="white"/>
</g>
<defs>
<linearGradient id="paint0_linear_422_437" x1="1200.68" y1="0" x2="1200.68" y2="2382.2" gradientUnits="userSpaceOnUse">
<stop stop-color="#2AABEE"/>
<stop offset="1" stop-color="#229ED9"/>
</linearGradient>
<clipPath id="clip0_422_437">
<rect width="24" height="24" fill="white" transform="translate(0.679688)"/>
</clipPath>
</defs>
</svg>
