<svg width="25" height="24" viewBox="0 0 25 24" fill="none" xmlns="http://www.w3.org/2000/svg">
<path d="M0.679688 24L2.36669 17.837C1.32569 16.033 0.778688 13.988 0.779688 11.891C0.782688 5.335 6.11769 0 12.6727 0C15.8537 0.001 18.8397 1.24 21.0857 3.488C23.3307 5.736 24.5667 8.724 24.5657 11.902C24.5627 18.459 19.2277 23.794 12.6727 23.794C10.6827 23.793 8.72169 23.294 6.98469 22.346L0.679688 24ZM7.27669 20.193C8.95269 21.188 10.5527 21.784 12.6687 21.785C18.1167 21.785 22.5547 17.351 22.5577 11.9C22.5597 6.438 18.1427 2.01 12.6767 2.008C7.22469 2.008 2.78969 6.442 2.78769 11.892C2.78669 14.117 3.43869 15.783 4.53369 17.526L3.53469 21.174L7.27669 20.193ZM18.6637 14.729C18.5897 14.605 18.3917 14.531 18.0937 14.382C17.7967 14.233 16.3357 13.514 16.0627 13.415C15.7907 13.316 15.5927 13.266 15.3937 13.564C15.1957 13.861 14.6257 14.531 14.4527 14.729C14.2797 14.927 14.1057 14.952 13.8087 14.803C13.5117 14.654 12.5537 14.341 11.4187 13.328C10.5357 12.54 9.93869 11.567 9.76569 11.269C9.59269 10.972 9.74769 10.811 9.89569 10.663C10.0297 10.53 10.1927 10.316 10.3417 10.142C10.4927 9.97 10.5417 9.846 10.6417 9.647C10.7407 9.449 10.6917 9.275 10.6167 9.126C10.5417 8.978 9.94769 7.515 9.70069 6.92C9.45869 6.341 9.21369 6.419 9.03169 6.41L8.46169 6.4C8.26369 6.4 7.94169 6.474 7.66969 6.772C7.39769 7.07 6.62969 7.788 6.62969 9.251C6.62969 10.714 7.69469 12.127 7.84269 12.325C7.99169 12.523 9.93769 15.525 12.9187 16.812C13.6277 17.118 14.1817 17.301 14.6127 17.438C15.3247 17.664 15.9727 17.632 16.4847 17.556C17.0557 17.471 18.2427 16.837 18.4907 16.143C18.7387 15.448 18.7387 14.853 18.6637 14.729Z" fill="#25D366"/>
</svg>
