<svg width="120" height="104" viewBox="0 0 120 104" fill="none" xmlns="http://www.w3.org/2000/svg">
<g clip-path="url(#clip0_422_334)">
<mask id="mask0_422_334" style="mask-type:luminance" maskUnits="userSpaceOnUse" x="0" y="0" width="120" height="104">
<path d="M120 0H0V104H120V0Z" fill="white"/>
</mask>
<g mask="url(#mask0_422_334)">
<path d="M20.995 62.8858L29.1401 57.2815L26.0252 68.9004H12.45L20.995 62.8858Z" fill="#FFC700"/>
<path d="M0.893555 90.4096V82.7371H4.01586C4.83384 82.7371 5.54961 82.9015 6.16312 83.2303C6.78391 83.5518 7.26594 84.0011 7.60923 84.5785C7.95249 85.1556 8.12414 85.8206 8.12414 86.5734C8.12414 87.3258 7.95249 87.9909 7.60923 88.5682C7.26594 89.1453 6.78391 89.5985 6.16312 89.9274C5.54961 90.2488 4.83384 90.4096 4.01586 90.4096H0.893555ZM1.70426 89.7081H3.97203C4.65127 89.7081 5.23919 89.5766 5.73586 89.3136C6.2398 89.0431 6.63053 88.674 6.90808 88.2065C7.18561 87.7314 7.32439 87.1872 7.32439 86.5734C7.32439 85.9522 7.18561 85.4077 6.90808 84.9402C6.63053 84.4725 6.2398 84.1072 5.73586 83.8441C5.23919 83.5737 4.65127 83.4386 3.97203 83.4386H1.70426V89.7081ZM15.4004 90.4644C14.8015 90.4644 14.2757 90.34 13.8228 90.0918C13.37 89.8359 13.0158 89.4889 12.7602 89.0505C12.5045 88.6047 12.3767 88.0969 12.3767 87.5269C12.3767 86.957 12.4972 86.4528 12.7382 86.0144C12.9866 85.5759 13.3225 85.2323 13.7461 84.984C14.1771 84.7281 14.6591 84.6004 15.1923 84.6004C15.7327 84.6004 16.2111 84.7246 16.6274 84.9731C17.051 85.2142 17.3833 85.5576 17.6244 86.0034C17.8654 86.4418 17.9859 86.9496 17.9859 87.5269C17.9859 87.5634 17.9822 87.6037 17.9749 87.6475C17.9749 87.684 17.9749 87.7242 17.9749 87.7681H12.9683V87.1872H17.5586L17.2519 87.4173C17.2519 87.0008 17.1606 86.6317 16.978 86.3103C16.8027 85.9815 16.5617 85.7256 16.2549 85.543C15.9482 85.3603 15.5939 85.269 15.1923 85.269C14.7979 85.269 14.4436 85.3603 14.1296 85.543C13.8155 85.7256 13.5709 85.9815 13.3956 86.3103C13.2203 86.6391 13.1326 87.0154 13.1326 87.4393V87.5598C13.1326 87.9983 13.2276 88.3855 13.4175 88.7217C13.6147 89.0505 13.8849 89.3097 14.2282 89.4999C14.5788 89.6824 14.9768 89.7739 15.4223 89.7739C15.7729 89.7739 16.0979 89.7117 16.3974 89.5876C16.7041 89.4632 16.967 89.2733 17.1861 89.0176L17.6244 89.5218C17.3687 89.8287 17.0474 90.0625 16.6603 90.2233C16.2805 90.3839 15.8605 90.4644 15.4004 90.4644ZM22.4259 87.779V87.0995H25.2962V87.779H22.4259ZM30.3449 90.4096V83.9318C30.3449 83.4202 30.4947 83.0073 30.7941 82.6932C31.0934 82.3789 31.5245 82.2219 32.0868 82.2219C32.3059 82.2219 32.5176 82.251 32.7222 82.3096C32.9268 82.368 33.0983 82.4592 33.2371 82.5836L32.9742 83.1646C32.8646 83.0695 32.7367 83.0001 32.5908 82.9563C32.4448 82.9051 32.2876 82.8796 32.1197 82.8796C31.791 82.8796 31.539 82.9708 31.3638 83.1536C31.1885 83.3361 31.1008 83.6066 31.1008 83.9647V84.8416L31.1227 85.2033V90.4096H30.3449ZM29.3151 85.3019V84.6552H32.8756V85.3019H29.3151ZM40.6002 90.4096V89.1382L40.5673 88.9299V86.8035C40.5673 86.3139 40.4287 85.9376 40.151 85.6746C39.881 85.4115 39.4756 85.28 38.935 85.28C38.5625 85.28 38.2083 85.3419 37.8723 85.4663C37.5365 85.5905 37.2516 85.7549 37.0178 85.9596L36.6672 85.3786C36.9594 85.1301 37.31 84.9402 37.7189 84.8087C38.1281 84.6698 38.5589 84.6004 39.0117 84.6004C39.7566 84.6004 40.3301 84.7868 40.7316 85.1594C41.1408 85.5247 41.3452 86.0837 41.3452 86.8364V90.4096H40.6002ZM38.6173 90.4644C38.1864 90.4644 37.8104 90.3948 37.4888 90.2562C37.175 90.1099 36.9339 89.9126 36.7658 89.6643C36.5979 89.4084 36.5138 89.1163 36.5138 88.7874C36.5138 88.4877 36.5834 88.2175 36.722 87.9763C36.8682 87.7278 37.1018 87.5305 37.4231 87.3845C37.7518 87.231 38.19 87.1543 38.7378 87.1543H40.7207V87.7352H38.7597C38.2048 87.7352 37.8175 87.8338 37.5984 88.0311C37.3867 88.2284 37.2807 88.4731 37.2807 88.7655C37.2807 89.0943 37.4086 89.3574 37.6641 89.5547C37.9199 89.752 38.2776 89.8506 38.7378 89.8506C39.176 89.8506 39.5523 89.752 39.8662 89.5547C40.1877 89.35 40.4213 89.0576 40.5673 88.6778L40.7426 89.2149C40.5966 89.5947 40.3411 89.898 39.9757 90.1247C39.618 90.351 39.165 90.4644 38.6173 90.4644ZM47.2486 88.919L47.2705 87.9215L50.8529 84.6552H51.806L49.2753 87.0776L48.8371 87.4502L47.2486 88.919ZM46.6351 90.4096V82.2767H47.4129V90.4096H46.6351ZM51.0939 90.4096L48.6947 87.4173L49.1987 86.8145L52.0471 90.4096H51.0939ZM58.2104 90.4644C57.6697 90.4644 57.2534 90.3181 56.9615 90.026C56.6692 89.7336 56.5232 89.3207 56.5232 88.7874V83.3838H57.3011V88.7436C57.3011 89.0796 57.3849 89.339 57.5531 89.5218C57.7283 89.7043 57.9765 89.7958 58.298 89.7958C58.6412 89.7958 58.926 89.6972 59.1525 89.4999L59.4264 90.0589C59.273 90.1976 59.0868 90.3 58.8677 90.3658C58.6557 90.4316 58.4366 90.4644 58.2104 90.4644ZM55.4934 85.3019V84.6552H59.0539V85.3019H55.4934ZM66.1607 90.4644C65.6055 90.4644 65.1052 90.34 64.6598 90.0918C64.2216 89.8359 63.8746 89.4889 63.619 89.0505C63.3632 88.6047 63.2356 88.0969 63.2356 87.5269C63.2356 86.9496 63.3632 86.4418 63.619 86.0034C63.8746 85.565 64.2216 85.2214 64.6598 84.9731C65.098 84.7246 65.5981 84.6004 66.1607 84.6004C66.7304 84.6004 67.2343 84.7246 67.6725 84.9731C68.1179 85.2214 68.4649 85.565 68.7133 86.0034C68.9688 86.4418 69.0967 86.9496 69.0967 87.5269C69.0967 88.0969 68.9688 88.6047 68.7133 89.0505C68.4649 89.4889 68.1179 89.8359 67.6725 90.0918C67.2269 90.34 66.723 90.4644 66.1607 90.4644ZM66.1607 89.7739C66.577 89.7739 66.9457 89.6824 67.2672 89.4999C67.5885 89.3097 67.8404 89.0467 68.0231 88.7107C68.2129 88.3671 68.308 87.9725 68.308 87.5269C68.308 87.0737 68.2129 86.6791 68.0231 86.3432C67.8404 86.007 67.5885 85.7475 67.2672 85.565C66.9457 85.3748 66.5806 85.28 66.1717 85.28C65.7625 85.28 65.3974 85.3748 65.0761 85.565C64.7546 85.7475 64.499 86.007 64.3092 86.3432C64.1192 86.6791 64.0244 87.0737 64.0244 87.5269C64.0244 87.9725 64.1192 88.3671 64.3092 88.7107C64.499 89.0467 64.7546 89.3097 65.0761 89.4999C65.3974 89.6824 65.7589 89.7739 66.1607 89.7739ZM74.0262 90.4096V82.7371H74.6945L78.2002 88.7217H77.8496L81.3225 82.7371H81.9908V90.4096H81.2129V83.9537H81.3992L78.2002 89.4341H77.8167L74.5959 83.9537H74.804V90.4096H74.0262ZM89.9452 90.4644C89.3462 90.4644 88.8203 90.34 88.3676 90.0918C87.9148 89.8359 87.5604 89.4889 87.3049 89.0505C87.0494 88.6047 86.9215 88.0969 86.9215 87.5269C86.9215 86.957 87.042 86.4528 87.283 86.0144C87.5314 85.5759 87.8672 85.2323 88.2909 84.984C88.7217 84.7281 89.2038 84.6004 89.737 84.6004C90.2774 84.6004 90.7559 84.7246 91.1722 84.9731C91.5959 85.2142 91.9281 85.5576 92.1691 86.0034C92.4101 86.4418 92.5306 86.9496 92.5306 87.5269C92.5306 87.5634 92.5271 87.6037 92.5197 87.6475C92.5197 87.684 92.5197 87.7242 92.5197 87.7681H87.5131V87.1872H92.1034L91.7966 87.4173C91.7966 87.0008 91.7054 86.6317 91.5227 86.3103C91.3474 85.9815 91.1064 85.7256 90.7997 85.543C90.4929 85.3603 90.1388 85.269 89.737 85.269C89.3426 85.269 88.9885 85.3603 88.6743 85.543C88.3602 85.7256 88.1156 85.9815 87.9403 86.3103C87.765 86.6391 87.6774 87.0154 87.6774 87.4393V87.5598C87.6774 87.9983 87.7724 88.3855 87.9622 88.7217C88.1594 89.0505 88.4297 89.3097 88.7729 89.4999C89.1235 89.6824 89.5215 89.7739 89.9671 89.7739C90.3176 89.7739 90.6427 89.7117 90.9421 89.5876C91.2488 89.4632 91.5118 89.2733 91.7309 89.0176L92.1691 89.5218C91.9136 89.8287 91.592 90.0625 91.205 90.2233C90.8252 90.3839 90.4053 90.4644 89.9452 90.4644ZM100.26 90.4644C99.7559 90.4644 99.3031 90.351 98.9013 90.1247C98.4998 89.8907 98.1821 89.5547 97.9482 89.1163C97.7146 88.6778 97.5976 88.1479 97.5976 87.5269C97.5976 86.8984 97.7146 86.3687 97.9482 85.9376C98.1892 85.4992 98.5108 85.1666 98.9123 84.9402C99.3141 84.7136 99.7632 84.6004 100.26 84.6004C100.808 84.6004 101.297 84.7246 101.728 84.9731C102.166 85.2142 102.509 85.554 102.758 85.9924C103.006 86.4309 103.13 86.9422 103.13 87.5269C103.13 88.104 103.006 88.6156 102.758 89.0615C102.509 89.4999 102.166 89.8432 101.728 90.0918C101.297 90.34 100.808 90.4644 100.26 90.4644ZM97.2909 90.4096V82.2767H98.0687V86.3541L97.9592 87.516L98.0359 88.6778V90.4096H97.2909ZM100.205 89.7739C100.614 89.7739 100.979 89.6824 101.301 89.4999C101.622 89.3097 101.878 89.0467 102.067 88.7107C102.258 88.3671 102.352 87.9725 102.352 87.5269C102.352 87.0737 102.258 86.6791 102.067 86.3432C101.878 86.007 101.622 85.7475 101.301 85.565C100.979 85.3748 100.614 85.28 100.205 85.28C99.7961 85.28 99.4272 85.3748 99.0985 85.565C98.7773 85.7475 98.5217 86.007 98.3316 86.3432C98.1492 86.6791 98.0578 87.0737 98.0578 87.5269C98.0578 87.9725 98.1492 88.3671 98.3316 88.7107C98.5217 89.0467 98.7773 89.3097 99.0985 89.4999C99.4272 89.6824 99.7961 89.7739 100.205 89.7739ZM107.893 90.4096V82.2767H108.671V90.4096H107.893ZM116.455 90.4644C115.856 90.4644 115.33 90.34 114.878 90.0918C114.425 89.8359 114.071 89.4889 113.815 89.0505C113.559 88.6047 113.432 88.0969 113.432 87.5269C113.432 86.957 113.552 86.4528 113.793 86.0144C114.041 85.5759 114.377 85.2323 114.801 84.984C115.232 84.7281 115.714 84.6004 116.247 84.6004C116.787 84.6004 117.266 84.7246 117.682 84.9731C118.106 85.2142 118.438 85.5576 118.679 86.0034C118.92 86.4418 119.041 86.9496 119.041 87.5269C119.041 87.5634 119.037 87.6037 119.03 87.6475C119.03 87.684 119.03 87.7242 119.03 87.7681H114.023V87.1872H118.613L118.307 87.4173C118.307 87.0008 118.215 86.6317 118.033 86.3103C117.858 85.9815 117.616 85.7256 117.31 85.543C117.003 85.3603 116.649 85.269 116.247 85.269C115.853 85.269 115.498 85.3603 115.184 85.543C114.87 85.7256 114.626 85.9815 114.45 86.3103C114.275 86.6391 114.187 87.0154 114.187 87.4393V87.5598C114.187 87.9983 114.282 88.3855 114.472 88.7217C114.669 89.0505 114.94 89.3097 115.283 89.4999C115.634 89.6824 116.032 89.7739 116.477 89.7739C116.828 89.7739 117.153 89.7117 117.452 89.5876C117.759 89.4632 118.022 89.2733 118.241 89.0176L118.679 89.5218C118.423 89.8287 118.102 90.0625 117.715 90.2233C117.335 90.3839 116.915 90.4644 116.455 90.4644Z" fill="black"/>
<path d="M44.0317 102.471L42.5286 98.0098H43.0126L44.4203 102.209H44.1782L45.6305 98.0098H46.0636L47.4967 102.209H47.2674L48.6878 98.0098H49.14L47.6368 102.471H47.14L45.7706 98.4877H45.898L44.5222 102.471H44.0317ZM52.1632 102.471V101.731L52.1441 101.61V100.374C52.1441 100.089 52.0633 99.8706 51.9021 99.7176C51.7449 99.5647 51.5092 99.4882 51.1951 99.4882C50.9785 99.4882 50.7726 99.5244 50.5772 99.5965C50.3818 99.6687 50.2162 99.7643 50.0804 99.8833L49.8766 99.5455C50.0465 99.401 50.2503 99.2906 50.4881 99.2142C50.7258 99.1334 50.9765 99.0931 51.2396 99.0931C51.6728 99.0931 52.006 99.2014 52.2396 99.4181C52.4774 99.6304 52.5963 99.9554 52.5963 100.393V102.471H52.1632ZM51.0103 102.502C50.7599 102.502 50.541 102.462 50.3543 102.381C50.1716 102.296 50.0315 102.182 49.9339 102.037C49.8363 101.889 49.7874 101.719 49.7874 101.527C49.7874 101.353 49.8277 101.196 49.9084 101.056C49.9933 100.911 50.1293 100.797 50.3161 100.712C50.5072 100.623 50.7619 100.578 51.0804 100.578H52.2333V100.916H51.0932C50.7703 100.916 50.5454 100.973 50.418 101.088C50.2949 101.202 50.2333 101.345 50.2333 101.515C50.2333 101.706 50.3077 101.859 50.4562 101.973C50.6047 102.088 50.8129 102.146 51.0804 102.146C51.3352 102.146 51.5538 102.088 51.7365 101.973C51.9232 101.854 52.0593 101.685 52.1441 101.464L52.246 101.776C52.1612 101.997 52.0124 102.173 51.8002 102.305C51.592 102.437 51.3288 102.502 51.0103 102.502ZM54.2386 102.471V99.125H54.6718V100.036L54.6272 99.8769C54.7207 99.622 54.8776 99.4288 55.0985 99.297C55.3194 99.1612 55.5933 99.0931 55.9202 99.0931V99.5328C55.9031 99.5328 55.8863 99.5328 55.8692 99.5328C55.8521 99.5285 55.8353 99.5264 55.8182 99.5264C55.4659 99.5264 55.1897 99.6348 54.9902 99.8514C54.7907 100.064 54.6909 100.368 54.6909 100.763V102.471H54.2386ZM58.0947 102.502C57.8188 102.502 57.5576 102.464 57.3112 102.388C57.0651 102.307 56.8717 102.207 56.7316 102.088L56.9354 101.731C57.0715 101.833 57.2455 101.923 57.4577 101.999C57.6702 102.071 57.8932 102.107 58.1265 102.107C58.445 102.107 58.6743 102.058 58.8144 101.961C58.9546 101.859 59.0246 101.725 59.0246 101.559C59.0246 101.436 58.9844 101.341 58.9036 101.273C58.8272 101.2 58.7253 101.147 58.5979 101.113C58.4705 101.075 58.3283 101.043 58.1711 101.018C58.0142 100.992 57.857 100.962 57.6998 100.928C57.5469 100.894 57.4068 100.846 57.2794 100.782C57.152 100.714 57.0481 100.623 56.9673 100.508C56.8909 100.393 56.8526 100.24 56.8526 100.049C56.8526 99.8662 56.9036 99.7028 57.0055 99.5583C57.1074 99.4138 57.2562 99.3014 57.4514 99.2206C57.6511 99.1357 57.8932 99.0931 58.1775 99.0931C58.394 99.0931 58.6106 99.1229 58.8272 99.1823C59.0437 99.2376 59.2221 99.3118 59.3622 99.4054L59.1647 99.7686C59.0162 99.6666 58.857 99.5945 58.687 99.5519C58.5174 99.5053 58.3474 99.4818 58.1775 99.4818C57.8761 99.4818 57.6531 99.5348 57.5087 99.6411C57.3686 99.7431 57.2985 99.8749 57.2985 100.036C57.2985 100.164 57.3367 100.264 57.4131 100.336C57.4939 100.408 57.5979 100.465 57.7253 100.508C57.857 100.546 57.9991 100.578 58.152 100.603C58.3092 100.629 58.4641 100.661 58.617 100.699C58.7742 100.733 58.9163 100.782 59.0437 100.846C59.1754 100.905 59.2794 100.992 59.3558 101.107C59.4366 101.217 59.4768 101.364 59.4768 101.547C59.4768 101.742 59.4218 101.912 59.3112 102.056C59.2053 102.197 59.0481 102.307 58.8399 102.388C58.6361 102.464 58.3877 102.502 58.0947 102.502ZM60.3576 102.471V102.171L62.5869 99.348L62.6825 99.5009H60.3958V99.125H63.0391V99.4181L60.8162 102.248L60.7016 102.095H63.0837V102.471H60.3576ZM66.4835 102.471V101.731L66.4644 101.61V100.374C66.4644 100.089 66.3836 99.8706 66.2223 99.7176C66.0651 99.5647 65.8295 99.4882 65.5153 99.4882C65.2988 99.4882 65.0929 99.5244 64.8975 99.5965C64.7021 99.6687 64.5365 99.7643 64.4007 99.8833L64.1968 99.5455C64.3668 99.401 64.5706 99.2906 64.8083 99.2142C65.046 99.1334 65.2967 99.0931 65.5599 99.0931C65.993 99.0931 66.3263 99.2014 66.5599 99.4181C66.7976 99.6304 66.9166 99.9554 66.9166 100.393V102.471H66.4835ZM65.3306 102.502C65.0802 102.502 64.8613 102.462 64.6746 102.381C64.4919 102.296 64.3517 102.182 64.2542 102.037C64.1566 101.889 64.1077 101.719 64.1077 101.527C64.1077 101.353 64.1479 101.196 64.2287 101.056C64.3135 100.911 64.4496 100.797 64.6363 100.712C64.8274 100.623 65.0822 100.578 65.4007 100.578H66.5535V100.916H65.4134C65.0906 100.916 64.8656 100.973 64.7382 101.088C64.6152 101.202 64.5535 101.345 64.5535 101.515C64.5535 101.706 64.6279 101.859 64.7765 101.973C64.925 102.088 65.1332 102.146 65.4007 102.146C65.6554 102.146 65.874 102.088 66.0567 101.973C66.2435 101.854 66.3795 101.685 66.4644 101.464L66.5663 101.776C66.4814 101.997 66.3326 102.173 66.1204 102.305C65.9123 102.437 65.6491 102.502 65.3306 102.502ZM69.1782 102.471L67.9171 99.125H68.3502L69.4967 102.228H69.2993L70.4776 99.125H70.8661L72.0317 102.228H71.8343L72.9999 99.125H73.4139L72.1464 102.471H71.7196L70.5986 99.5519H70.7324L69.605 102.471H69.1782ZM76.5049 102.471V101.731L76.4858 101.61V100.374C76.4858 100.089 76.405 99.8706 76.2437 99.7176C76.0865 99.5647 75.8509 99.4882 75.5367 99.4882C75.3202 99.4882 75.1143 99.5244 74.9189 99.5965C74.7235 99.6687 74.5579 99.7643 74.4221 99.8833L74.2182 99.5455C74.3882 99.401 74.592 99.2906 74.8297 99.2142C75.0674 99.1334 75.3181 99.0931 75.5813 99.0931C76.0144 99.0931 76.3477 99.2014 76.5813 99.4181C76.819 99.6304 76.938 99.9554 76.938 100.393V102.471H76.5049ZM75.352 102.502C75.1016 102.502 74.8827 102.462 74.696 102.381C74.5133 102.296 74.3732 102.182 74.2756 102.037C74.178 101.889 74.1291 101.719 74.1291 101.527C74.1291 101.353 74.1693 101.196 74.2501 101.056C74.3349 100.911 74.471 100.797 74.6577 100.712C74.8488 100.623 75.1036 100.578 75.4221 100.578H76.5749V100.916H75.4348C75.112 100.916 74.887 100.973 74.7596 101.088C74.6366 101.202 74.5749 101.345 74.5749 101.515C74.5749 101.706 74.6493 101.859 74.7979 101.973C74.9464 102.088 75.1546 102.146 75.4221 102.146C75.6768 102.146 75.8954 102.088 76.0781 101.973C76.2649 101.854 76.4009 101.685 76.4858 101.464L76.5877 101.776C76.5028 101.997 76.354 102.173 76.1418 102.305C75.9337 102.437 75.6705 102.502 75.352 102.502Z" fill="#FFC700"/>
<path fill-rule="evenodd" clip-rule="evenodd" d="M106.839 -0.205322H51.4643L39.9583 42.5128L57.164 30.4891L57.0478 30.9411L61.5713 13.6273H88.9461L80.7622 43.273C78.9874 49.7031 73.2516 54.2404 66.5887 54.4853L57.2781 54.8274L53.8493 68.9003H69.0763C80.6598 68.9003 90.7851 61.0827 93.7217 49.8724L106.839 -0.205322ZM47.1329 68.9003L50.7471 55.0683L52.0547 55.0196L50.7443 55.0675L54.6885 39.9712L37.4437 51.8494L32.8508 68.9003H47.1329Z" fill="black"/>
<path d="M37.4382 51.8473L54.6881 39.9722L47.1314 68.9005H32.8079L37.4382 51.8473Z" fill="#FFC700"/>
</g>
</g>
<defs>
<clipPath id="clip0_422_334">
<rect width="120" height="104" fill="white"/>
</clipPath>
</defs>
</svg>
